<svg width="857" height="256" viewBox="0 0 857 256" fill="none" xmlns="http://www.w3.org/2000/svg">
<path d="M150.14 180.036C143.172 183.253 135.442 185.044 127.304 185.044C116.07 185.044 105.613 181.632 96.8667 175.764C91.7197 181.47 84.3539 185.044 76.1739 185.044C60.6139 185.044 48 172.114 48 156.165C48 141.794 58.2423 129.874 71.6532 127.657C71.8334 96.3105 96.6802 70.9565 127.304 70.9565C150.604 70.9565 170.56 85.6331 178.852 106.459C195.619 110.916 208 126.533 208 145.113C208 167.166 190.559 185.044 169.043 185.044C162.184 185.044 155.738 183.226 150.14 180.036Z" fill="#00FF94" stroke="#1E2E5E" stroke-width="2"/>
<path fill-rule="evenodd" clip-rule="evenodd" d="M169.043 185.043C190.559 185.043 208 167.135 208 145.043C208 122.952 190.559 105.043 169.043 105.043C147.528 105.043 130.087 122.952 130.087 145.043C130.087 167.135 147.528 185.043 169.043 185.043Z" fill="#00FF94" stroke="#1E2E5E" stroke-width="4"/>
<path opacity="0.9" fill-rule="evenodd" clip-rule="evenodd" d="M127.304 185.044C158.04 185.044 182.957 159.504 182.957 128C182.957 96.4958 158.04 70.9565 127.304 70.9565C96.5685 70.9565 71.6522 96.4958 71.6522 128C71.6522 159.504 96.5685 185.044 127.304 185.044Z" fill="#00FF94" stroke="#1E2E5E" stroke-width="4"/>
<rect width="127.898" height="17.7464" rx="8.87318" transform="matrix(0.847874 -0.530198 0.470397 0.882455 70.2609 115.811)" fill="white" stroke="#1E2E5E" stroke-width="4"/>
<path fill-rule="evenodd" clip-rule="evenodd" d="M76.1739 185.043C91.7339 185.043 104.348 172.118 104.348 156.174C104.348 140.23 91.7339 127.304 76.1739 127.304C60.6139 127.304 48 140.23 48 156.174C48 172.118 60.6139 185.043 76.1739 185.043Z" fill="#00FF94" stroke="#1E2E5E" stroke-width="4"/>
<rect width="127.898" height="17.7464" rx="8.87318" transform="matrix(0.847874 -0.530198 0.470397 0.882455 70.2609 192.34)" fill="white" stroke="#1E2E5E" stroke-width="4"/>
<path opacity="0.6" fill-rule="evenodd" clip-rule="evenodd" d="M169.043 185.043C190.559 185.043 208 167.135 208 145.043C208 122.952 190.559 105.043 169.043 105.043C147.528 105.043 130.087 122.952 130.087 145.043C130.087 167.135 147.528 185.043 169.043 185.043Z" fill="#00FF94" stroke="#1E2E5E" stroke-width="4"/>
<path fill-rule="evenodd" clip-rule="evenodd" d="M169.043 185.043C190.559 185.043 208 167.135 208 145.043C208 122.952 190.559 105.043 169.043 105.043C147.528 105.043 130.087 122.952 130.087 145.043C130.087 167.135 147.528 185.043 169.043 185.043Z" stroke="#1E2E5E" stroke-width="4"/>
<rect width="127.898" height="17.7464" rx="8.87318" transform="matrix(0.847874 -0.530198 0.470397 0.882455 70.2609 154.076)" fill="white" stroke="#1E2E5E" stroke-width="4"/>
<path opacity="0.6" fill-rule="evenodd" clip-rule="evenodd" d="M76.1739 185.043C91.7339 185.043 104.348 172.118 104.348 156.174C104.348 140.23 91.7339 127.304 76.1739 127.304C60.6139 127.304 48 140.23 48 156.174C48 172.118 60.6139 185.043 76.1739 185.043Z" fill="#00FF94" stroke="#1E2E5E" stroke-width="4"/>
<path fill-rule="evenodd" clip-rule="evenodd" d="M76.1739 185.043C91.7339 185.043 104.348 172.118 104.348 156.174C104.348 140.23 91.7339 127.304 76.1739 127.304C60.6139 127.304 48 140.23 48 156.174C48 172.118 60.6139 185.043 76.1739 185.043Z" stroke="#1E2E5E" stroke-width="4"/>
<mask id="path-12-outside-1_77_6194" maskUnits="userSpaceOnUse" x="254" y="88.32" width="509" height="80" fill="black">
<rect fill="white" x="254" y="88.32" width="509" height="80"/>
<path d="M310.528 95.312C310.528 93.84 311.008 92.656 311.968 91.76C312.928 90.8 314.112 90.32 315.52 90.32C316.928 90.32 318.08 90.8 318.976 91.76C319.936 92.656 320.416 93.84 320.416 95.312V160.304C320.416 161.776 319.936 162.992 318.976 163.952C318.08 164.848 316.928 165.296 315.52 165.296C314.112 165.296 312.928 164.816 311.968 163.856C311.008 162.896 310.528 161.712 310.528 160.304V131.696H265.984V160.304C265.984 161.712 265.504 162.896 264.544 163.856C263.648 164.816 262.464 165.296 260.992 165.296C259.584 165.296 258.4 164.816 257.44 163.856C256.48 162.896 256 161.712 256 160.304V95.312C256 93.84 256.48 92.656 257.44 91.76C258.4 90.8 259.584 90.32 260.992 90.32C262.464 90.32 263.648 90.8 264.544 91.76C265.504 92.656 265.984 93.84 265.984 95.312V122.864H310.528V95.312Z"/>
<path d="M385.801 138.224C385.801 139.44 385.385 140.464 384.553 141.296C383.721 142.064 382.665 142.448 381.385 142.448H344.905C345.609 146.928 347.625 150.544 350.953 153.296C354.345 156.048 358.473 157.424 363.337 157.424C365.257 157.424 367.241 157.072 369.289 156.368C371.401 155.664 373.129 154.8 374.473 153.776C375.369 153.072 376.425 152.72 377.641 152.72C378.857 152.72 379.817 153.04 380.521 153.68C381.673 154.64 382.249 155.728 382.249 156.944C382.249 158.096 381.737 159.056 380.713 159.824C378.537 161.552 375.817 162.96 372.553 164.048C369.353 165.136 366.281 165.68 363.337 165.68C358.089 165.68 353.385 164.56 349.225 162.32C345.065 160.016 341.801 156.848 339.433 152.816C337.129 148.784 335.977 144.208 335.977 139.088C335.977 133.968 337.065 129.392 339.241 125.36C341.481 121.264 344.553 118.096 348.457 115.856C352.425 113.552 356.905 112.4 361.897 112.4C366.825 112.4 371.081 113.488 374.665 115.664C378.249 117.84 381.001 120.88 382.921 124.784C384.841 128.688 385.801 133.168 385.801 138.224ZM361.897 120.656C357.225 120.656 353.417 121.936 350.473 124.496C347.593 127.056 345.769 130.48 345.001 134.768H376.969C376.393 130.48 374.793 127.056 372.169 124.496C369.545 121.936 366.121 120.656 361.897 120.656Z"/>
<path d="M396.37 95.12C396.37 93.712 396.818 92.56 397.714 91.664C398.61 90.768 399.762 90.32 401.17 90.32C402.578 90.32 403.73 90.768 404.626 91.664C405.522 92.56 405.97 93.712 405.97 95.12V147.536C405.97 149.904 406.418 151.856 407.314 153.392C408.21 154.928 409.362 155.696 410.77 155.696H413.17C414.45 155.696 415.474 156.144 416.242 157.04C417.074 157.936 417.49 159.088 417.49 160.496C417.49 161.904 416.882 163.056 415.666 163.952C414.45 164.848 412.882 165.296 410.962 165.296H410.77C408.018 165.296 405.522 164.56 403.282 163.088C401.106 161.552 399.41 159.44 398.194 156.752C396.978 154 396.37 150.928 396.37 147.536V95.12Z"/>
<path d="M425.151 95.12C425.151 93.712 425.599 92.56 426.495 91.664C427.391 90.768 428.543 90.32 429.951 90.32C431.359 90.32 432.511 90.768 433.407 91.664C434.303 92.56 434.751 93.712 434.751 95.12V147.536C434.751 149.904 435.199 151.856 436.095 153.392C436.991 154.928 438.143 155.696 439.551 155.696H441.951C443.231 155.696 444.255 156.144 445.023 157.04C445.855 157.936 446.271 159.088 446.271 160.496C446.271 161.904 445.663 163.056 444.447 163.952C443.231 164.848 441.663 165.296 439.743 165.296H439.551C436.799 165.296 434.303 164.56 432.063 163.088C429.887 161.552 428.191 159.44 426.975 156.752C425.759 154 425.151 150.928 425.151 147.536V95.12Z"/>
<path d="M476.754 112.4C481.81 112.4 486.322 113.552 490.29 115.856C494.322 118.096 497.458 121.232 499.698 125.264C502.002 129.296 503.154 133.904 503.154 139.088C503.154 144.208 502.034 148.784 499.794 152.816C497.554 156.848 494.418 160.016 490.386 162.32C486.418 164.56 481.874 165.68 476.754 165.68C471.634 165.68 467.058 164.56 463.026 162.32C458.994 160.016 455.858 156.848 453.618 152.816C451.378 148.784 450.258 144.208 450.258 139.088C450.258 133.904 451.378 129.296 453.618 125.264C455.858 121.232 458.994 118.096 463.026 115.856C467.058 113.552 471.634 112.4 476.754 112.4ZM476.754 121.04C473.49 121.04 470.546 121.808 467.922 123.344C465.362 124.88 463.346 127.024 461.874 129.776C460.402 132.528 459.666 135.632 459.666 139.088C459.666 142.544 460.402 145.648 461.874 148.4C463.346 151.088 465.362 153.2 467.922 154.736C470.546 156.272 473.49 157.04 476.754 157.04C480.018 157.04 482.93 156.272 485.49 154.736C488.114 153.2 490.13 151.088 491.538 148.4C493.01 145.648 493.746 142.544 493.746 139.088C493.746 135.632 493.01 132.528 491.538 129.776C490.13 127.024 488.114 124.88 485.49 123.344C482.93 121.808 480.018 121.04 476.754 121.04Z"/>
<path d="M589.341 95.312C589.341 93.84 589.821 92.656 590.781 91.76C591.741 90.8 592.924 90.32 594.332 90.32C595.74 90.32 596.893 90.8 597.789 91.76C598.749 92.656 599.229 93.84 599.229 95.312V160.304C599.229 161.776 598.749 162.992 597.789 163.952C596.893 164.848 595.74 165.296 594.332 165.296C592.924 165.296 591.741 164.816 590.781 163.856C589.821 162.896 589.341 161.712 589.341 160.304V131.696H544.797V160.304C544.797 161.712 544.316 162.896 543.357 163.856C542.461 164.816 541.276 165.296 539.805 165.296C538.397 165.296 537.212 164.816 536.253 163.856C535.293 162.896 534.812 161.712 534.812 160.304V95.312C534.812 93.84 535.293 92.656 536.253 91.76C537.212 90.8 538.397 90.32 539.805 90.32C541.276 90.32 542.461 90.8 543.357 91.76C544.316 92.656 544.797 93.84 544.797 95.312V122.864H589.341V95.312Z"/>
<path d="M641.285 112.4C646.341 112.4 650.854 113.552 654.822 115.856C658.854 118.096 661.99 121.232 664.229 125.264C666.534 129.296 667.686 133.904 667.686 139.088C667.686 144.208 666.565 148.784 664.326 152.816C662.086 156.848 658.95 160.016 654.918 162.32C650.95 164.56 646.405 165.68 641.285 165.68C636.165 165.68 631.59 164.56 627.557 162.32C623.525 160.016 620.389 156.848 618.15 152.816C615.91 148.784 614.789 144.208 614.789 139.088C614.789 133.904 615.91 129.296 618.15 125.264C620.389 121.232 623.525 118.096 627.557 115.856C631.59 113.552 636.165 112.4 641.285 112.4ZM641.285 121.04C638.021 121.04 635.077 121.808 632.453 123.344C629.893 124.88 627.878 127.024 626.405 129.776C624.933 132.528 624.198 135.632 624.198 139.088C624.198 142.544 624.933 145.648 626.405 148.4C627.878 151.088 629.893 153.2 632.453 154.736C635.077 156.272 638.021 157.04 641.285 157.04C644.549 157.04 647.462 156.272 650.022 154.736C652.646 153.2 654.661 151.088 656.069 148.4C657.542 145.648 658.277 142.544 658.277 139.088C658.277 135.632 657.542 132.528 656.069 129.776C654.661 127.024 652.646 124.88 650.022 123.344C647.462 121.808 644.549 121.04 641.285 121.04Z"/>
<path d="M700.691 112.4C704.851 112.4 708.563 113.072 711.827 114.416C715.155 115.76 717.779 117.616 719.699 119.984C720.531 121.008 720.947 122.032 720.947 123.056C720.947 124.144 720.403 125.136 719.315 126.032C718.611 126.544 717.715 126.8 716.627 126.8C714.963 126.8 713.459 126.192 712.115 124.976C710.515 123.504 708.819 122.48 707.027 121.904C705.235 121.264 703.059 120.944 700.499 120.944C697.555 120.944 695.123 121.456 693.203 122.48C691.347 123.44 690.419 124.816 690.419 126.608C690.419 127.888 690.739 128.976 691.379 129.872C692.019 130.704 693.235 131.504 695.027 132.272C696.819 132.976 699.411 133.68 702.803 134.384C709.779 135.792 714.707 137.744 717.587 140.24C720.531 142.736 722.003 145.968 722.003 149.936C722.003 152.88 721.203 155.568 719.603 158C718.003 160.368 715.635 162.256 712.499 163.664C709.427 165.008 705.715 165.68 701.363 165.68C697.011 165.68 692.915 165.008 689.075 163.664C685.235 162.32 682.227 160.56 680.051 158.384C679.219 157.552 678.803 156.56 678.803 155.408C678.803 153.872 679.443 152.624 680.723 151.664C681.939 150.768 683.059 150.32 684.083 150.32C685.363 150.32 686.579 150.896 687.731 152.048C688.947 153.392 690.771 154.576 693.203 155.6C695.635 156.56 698.227 157.04 700.979 157.04C704.627 157.04 707.443 156.432 709.427 155.216C711.475 154 712.499 152.368 712.499 150.32C712.499 148.336 711.507 146.704 709.523 145.424C707.539 144.08 704.179 142.96 699.443 142.064C687.155 139.696 681.011 134.64 681.011 126.896C681.011 123.76 681.939 121.104 683.795 118.928C685.651 116.752 688.083 115.12 691.091 114.032C694.099 112.944 697.299 112.4 700.691 112.4Z"/>
<path d="M756.752 155.696C757.904 155.696 758.864 156.144 759.632 157.04C760.464 157.936 760.88 159.088 760.88 160.496C760.88 161.904 760.336 163.056 759.248 163.952C758.224 164.848 756.88 165.296 755.216 165.296H753.488C750.352 165.296 747.472 164.496 744.848 162.896C742.288 161.232 740.272 158.992 738.8 156.176C737.328 153.36 736.592 150.192 736.592 146.672V122.96H732.176C730.832 122.96 729.744 122.576 728.912 121.808C728.08 121.04 727.664 120.08 727.664 118.928C727.664 117.648 728.08 116.624 728.912 115.856C729.744 115.088 730.832 114.704 732.176 114.704H736.592V100.88C736.592 99.472 737.04 98.32 737.936 97.424C738.832 96.528 739.984 96.08 741.392 96.08C742.8 96.08 743.952 96.528 744.848 97.424C745.744 98.32 746.192 99.472 746.192 100.88V114.704H754.352C755.696 114.704 756.784 115.088 757.616 115.856C758.448 116.624 758.864 117.648 758.864 118.928C758.864 120.08 758.448 121.04 757.616 121.808C756.784 122.576 755.696 122.96 754.352 122.96H746.192V146.672C746.192 149.232 746.896 151.376 748.304 153.104C749.712 154.832 751.44 155.696 753.488 155.696H756.752Z"/>
</mask>
<g filter="url(#filter0_i_77_6194)">
<path d="M310.528 95.312C310.528 93.84 311.008 92.656 311.968 91.76C312.928 90.8 314.112 90.32 315.52 90.32C316.928 90.32 318.08 90.8 318.976 91.76C319.936 92.656 320.416 93.84 320.416 95.312V160.304C320.416 161.776 319.936 162.992 318.976 163.952C318.08 164.848 316.928 165.296 315.52 165.296C314.112 165.296 312.928 164.816 311.968 163.856C311.008 162.896 310.528 161.712 310.528 160.304V131.696H265.984V160.304C265.984 161.712 265.504 162.896 264.544 163.856C263.648 164.816 262.464 165.296 260.992 165.296C259.584 165.296 258.4 164.816 257.44 163.856C256.48 162.896 256 161.712 256 160.304V95.312C256 93.84 256.48 92.656 257.44 91.76C258.4 90.8 259.584 90.32 260.992 90.32C262.464 90.32 263.648 90.8 264.544 91.76C265.504 92.656 265.984 93.84 265.984 95.312V122.864H310.528V95.312Z" fill="white"/>
<path d="M385.801 138.224C385.801 139.44 385.385 140.464 384.553 141.296C383.721 142.064 382.665 142.448 381.385 142.448H344.905C345.609 146.928 347.625 150.544 350.953 153.296C354.345 156.048 358.473 157.424 363.337 157.424C365.257 157.424 367.241 157.072 369.289 156.368C371.401 155.664 373.129 154.8 374.473 153.776C375.369 153.072 376.425 152.72 377.641 152.72C378.857 152.72 379.817 153.04 380.521 153.68C381.673 154.64 382.249 155.728 382.249 156.944C382.249 158.096 381.737 159.056 380.713 159.824C378.537 161.552 375.817 162.96 372.553 164.048C369.353 165.136 366.281 165.68 363.337 165.68C358.089 165.68 353.385 164.56 349.225 162.32C345.065 160.016 341.801 156.848 339.433 152.816C337.129 148.784 335.977 144.208 335.977 139.088C335.977 133.968 337.065 129.392 339.241 125.36C341.481 121.264 344.553 118.096 348.457 115.856C352.425 113.552 356.905 112.4 361.897 112.4C366.825 112.4 371.081 113.488 374.665 115.664C378.249 117.84 381.001 120.88 382.921 124.784C384.841 128.688 385.801 133.168 385.801 138.224ZM361.897 120.656C357.225 120.656 353.417 121.936 350.473 124.496C347.593 127.056 345.769 130.48 345.001 134.768H376.969C376.393 130.48 374.793 127.056 372.169 124.496C369.545 121.936 366.121 120.656 361.897 120.656Z" fill="white"/>
<path d="M396.37 95.12C396.37 93.712 396.818 92.56 397.714 91.664C398.61 90.768 399.762 90.32 401.17 90.32C402.578 90.32 403.73 90.768 404.626 91.664C405.522 92.56 405.97 93.712 405.97 95.12V147.536C405.97 149.904 406.418 151.856 407.314 153.392C408.21 154.928 409.362 155.696 410.77 155.696H413.17C414.45 155.696 415.474 156.144 416.242 157.04C417.074 157.936 417.49 159.088 417.49 160.496C417.49 161.904 416.882 163.056 415.666 163.952C414.45 164.848 412.882 165.296 410.962 165.296H410.77C408.018 165.296 405.522 164.56 403.282 163.088C401.106 161.552 399.41 159.44 398.194 156.752C396.978 154 396.37 150.928 396.37 147.536V95.12Z" fill="white"/>
<path d="M425.151 95.12C425.151 93.712 425.599 92.56 426.495 91.664C427.391 90.768 428.543 90.32 429.951 90.32C431.359 90.32 432.511 90.768 433.407 91.664C434.303 92.56 434.751 93.712 434.751 95.12V147.536C434.751 149.904 435.199 151.856 436.095 153.392C436.991 154.928 438.143 155.696 439.551 155.696H441.951C443.231 155.696 444.255 156.144 445.023 157.04C445.855 157.936 446.271 159.088 446.271 160.496C446.271 161.904 445.663 163.056 444.447 163.952C443.231 164.848 441.663 165.296 439.743 165.296H439.551C436.799 165.296 434.303 164.56 432.063 163.088C429.887 161.552 428.191 159.44 426.975 156.752C425.759 154 425.151 150.928 425.151 147.536V95.12Z" fill="white"/>
<path d="M476.754 112.4C481.81 112.4 486.322 113.552 490.29 115.856C494.322 118.096 497.458 121.232 499.698 125.264C502.002 129.296 503.154 133.904 503.154 139.088C503.154 144.208 502.034 148.784 499.794 152.816C497.554 156.848 494.418 160.016 490.386 162.32C486.418 164.56 481.874 165.68 476.754 165.68C471.634 165.68 467.058 164.56 463.026 162.32C458.994 160.016 455.858 156.848 453.618 152.816C451.378 148.784 450.258 144.208 450.258 139.088C450.258 133.904 451.378 129.296 453.618 125.264C455.858 121.232 458.994 118.096 463.026 115.856C467.058 113.552 471.634 112.4 476.754 112.4ZM476.754 121.04C473.49 121.04 470.546 121.808 467.922 123.344C465.362 124.88 463.346 127.024 461.874 129.776C460.402 132.528 459.666 135.632 459.666 139.088C459.666 142.544 460.402 145.648 461.874 148.4C463.346 151.088 465.362 153.2 467.922 154.736C470.546 156.272 473.49 157.04 476.754 157.04C480.018 157.04 482.93 156.272 485.49 154.736C488.114 153.2 490.13 151.088 491.538 148.4C493.01 145.648 493.746 142.544 493.746 139.088C493.746 135.632 493.01 132.528 491.538 129.776C490.13 127.024 488.114 124.88 485.49 123.344C482.93 121.808 480.018 121.04 476.754 121.04Z" fill="white"/>
<path d="M589.341 95.312C589.341 93.84 589.821 92.656 590.781 91.76C591.741 90.8 592.924 90.32 594.332 90.32C595.74 90.32 596.893 90.8 597.789 91.76C598.749 92.656 599.229 93.84 599.229 95.312V160.304C599.229 161.776 598.749 162.992 597.789 163.952C596.893 164.848 595.74 165.296 594.332 165.296C592.924 165.296 591.741 164.816 590.781 163.856C589.821 162.896 589.341 161.712 589.341 160.304V131.696H544.797V160.304C544.797 161.712 544.316 162.896 543.357 163.856C542.461 164.816 541.276 165.296 539.805 165.296C538.397 165.296 537.212 164.816 536.253 163.856C535.293 162.896 534.812 161.712 534.812 160.304V95.312C534.812 93.84 535.293 92.656 536.253 91.76C537.212 90.8 538.397 90.32 539.805 90.32C541.276 90.32 542.461 90.8 543.357 91.76C544.316 92.656 544.797 93.84 544.797 95.312V122.864H589.341V95.312Z" fill="white"/>
<path d="M641.285 112.4C646.341 112.4 650.854 113.552 654.822 115.856C658.854 118.096 661.99 121.232 664.229 125.264C666.534 129.296 667.686 133.904 667.686 139.088C667.686 144.208 666.565 148.784 664.326 152.816C662.086 156.848 658.95 160.016 654.918 162.32C650.95 164.56 646.405 165.68 641.285 165.68C636.165 165.68 631.59 164.56 627.557 162.32C623.525 160.016 620.389 156.848 618.15 152.816C615.91 148.784 614.789 144.208 614.789 139.088C614.789 133.904 615.91 129.296 618.15 125.264C620.389 121.232 623.525 118.096 627.557 115.856C631.59 113.552 636.165 112.4 641.285 112.4ZM641.285 121.04C638.021 121.04 635.077 121.808 632.453 123.344C629.893 124.88 627.878 127.024 626.405 129.776C624.933 132.528 624.198 135.632 624.198 139.088C624.198 142.544 624.933 145.648 626.405 148.4C627.878 151.088 629.893 153.2 632.453 154.736C635.077 156.272 638.021 157.04 641.285 157.04C644.549 157.04 647.462 156.272 650.022 154.736C652.646 153.2 654.661 151.088 656.069 148.4C657.542 145.648 658.277 142.544 658.277 139.088C658.277 135.632 657.542 132.528 656.069 129.776C654.661 127.024 652.646 124.88 650.022 123.344C647.462 121.808 644.549 121.04 641.285 121.04Z" fill="white"/>
<path d="M700.691 112.4C704.851 112.4 708.563 113.072 711.827 114.416C715.155 115.76 717.779 117.616 719.699 119.984C720.531 121.008 720.947 122.032 720.947 123.056C720.947 124.144 720.403 125.136 719.315 126.032C718.611 126.544 717.715 126.8 716.627 126.8C714.963 126.8 713.459 126.192 712.115 124.976C710.515 123.504 708.819 122.48 707.027 121.904C705.235 121.264 703.059 120.944 700.499 120.944C697.555 120.944 695.123 121.456 693.203 122.48C691.347 123.44 690.419 124.816 690.419 126.608C690.419 127.888 690.739 128.976 691.379 129.872C692.019 130.704 693.235 131.504 695.027 132.272C696.819 132.976 699.411 133.68 702.803 134.384C709.779 135.792 714.707 137.744 717.587 140.24C720.531 142.736 722.003 145.968 722.003 149.936C722.003 152.88 721.203 155.568 719.603 158C718.003 160.368 715.635 162.256 712.499 163.664C709.427 165.008 705.715 165.68 701.363 165.68C697.011 165.68 692.915 165.008 689.075 163.664C685.235 162.32 682.227 160.56 680.051 158.384C679.219 157.552 678.803 156.56 678.803 155.408C678.803 153.872 679.443 152.624 680.723 151.664C681.939 150.768 683.059 150.32 684.083 150.32C685.363 150.32 686.579 150.896 687.731 152.048C688.947 153.392 690.771 154.576 693.203 155.6C695.635 156.56 698.227 157.04 700.979 157.04C704.627 157.04 707.443 156.432 709.427 155.216C711.475 154 712.499 152.368 712.499 150.32C712.499 148.336 711.507 146.704 709.523 145.424C707.539 144.08 704.179 142.96 699.443 142.064C687.155 139.696 681.011 134.64 681.011 126.896C681.011 123.76 681.939 121.104 683.795 118.928C685.651 116.752 688.083 115.12 691.091 114.032C694.099 112.944 697.299 112.4 700.691 112.4Z" fill="white"/>
<path d="M756.752 155.696C757.904 155.696 758.864 156.144 759.632 157.04C760.464 157.936 760.88 159.088 760.88 160.496C760.88 161.904 760.336 163.056 759.248 163.952C758.224 164.848 756.88 165.296 755.216 165.296H753.488C750.352 165.296 747.472 164.496 744.848 162.896C742.288 161.232 740.272 158.992 738.8 156.176C737.328 153.36 736.592 150.192 736.592 146.672V122.96H732.176C730.832 122.96 729.744 122.576 728.912 121.808C728.08 121.04 727.664 120.08 727.664 118.928C727.664 117.648 728.08 116.624 728.912 115.856C729.744 115.088 730.832 114.704 732.176 114.704H736.592V100.88C736.592 99.472 737.04 98.32 737.936 97.424C738.832 96.528 739.984 96.08 741.392 96.08C742.8 96.08 743.952 96.528 744.848 97.424C745.744 98.32 746.192 99.472 746.192 100.88V114.704H754.352C755.696 114.704 756.784 115.088 757.616 115.856C758.448 116.624 758.864 117.648 758.864 118.928C758.864 120.08 758.448 121.04 757.616 121.808C756.784 122.576 755.696 122.96 754.352 122.96H746.192V146.672C746.192 149.232 746.896 151.376 748.304 153.104C749.712 154.832 751.44 155.696 753.488 155.696H756.752Z" fill="white"/>
</g>
<path d="M310.528 95.312C310.528 93.84 311.008 92.656 311.968 91.76C312.928 90.8 314.112 90.32 315.52 90.32C316.928 90.32 318.08 90.8 318.976 91.76C319.936 92.656 320.416 93.84 320.416 95.312V160.304C320.416 161.776 319.936 162.992 318.976 163.952C318.08 164.848 316.928 165.296 315.52 165.296C314.112 165.296 312.928 164.816 311.968 163.856C311.008 162.896 310.528 161.712 310.528 160.304V131.696H265.984V160.304C265.984 161.712 265.504 162.896 264.544 163.856C263.648 164.816 262.464 165.296 260.992 165.296C259.584 165.296 258.4 164.816 257.44 163.856C256.48 162.896 256 161.712 256 160.304V95.312C256 93.84 256.48 92.656 257.44 91.76C258.4 90.8 259.584 90.32 260.992 90.32C262.464 90.32 263.648 90.8 264.544 91.76C265.504 92.656 265.984 93.84 265.984 95.312V122.864H310.528V95.312Z" stroke="white" stroke-width="4" mask="url(#path-12-outside-1_77_6194)"/>
<path d="M385.801 138.224C385.801 139.44 385.385 140.464 384.553 141.296C383.721 142.064 382.665 142.448 381.385 142.448H344.905C345.609 146.928 347.625 150.544 350.953 153.296C354.345 156.048 358.473 157.424 363.337 157.424C365.257 157.424 367.241 157.072 369.289 156.368C371.401 155.664 373.129 154.8 374.473 153.776C375.369 153.072 376.425 152.72 377.641 152.72C378.857 152.72 379.817 153.04 380.521 153.68C381.673 154.64 382.249 155.728 382.249 156.944C382.249 158.096 381.737 159.056 380.713 159.824C378.537 161.552 375.817 162.96 372.553 164.048C369.353 165.136 366.281 165.68 363.337 165.68C358.089 165.68 353.385 164.56 349.225 162.32C345.065 160.016 341.801 156.848 339.433 152.816C337.129 148.784 335.977 144.208 335.977 139.088C335.977 133.968 337.065 129.392 339.241 125.36C341.481 121.264 344.553 118.096 348.457 115.856C352.425 113.552 356.905 112.4 361.897 112.4C366.825 112.4 371.081 113.488 374.665 115.664C378.249 117.84 381.001 120.88 382.921 124.784C384.841 128.688 385.801 133.168 385.801 138.224ZM361.897 120.656C357.225 120.656 353.417 121.936 350.473 124.496C347.593 127.056 345.769 130.48 345.001 134.768H376.969C376.393 130.48 374.793 127.056 372.169 124.496C369.545 121.936 366.121 120.656 361.897 120.656Z" stroke="white" stroke-width="4" mask="url(#path-12-outside-1_77_6194)"/>
<path d="M396.37 95.12C396.37 93.712 396.818 92.56 397.714 91.664C398.61 90.768 399.762 90.32 401.17 90.32C402.578 90.32 403.73 90.768 404.626 91.664C405.522 92.56 405.97 93.712 405.97 95.12V147.536C405.97 149.904 406.418 151.856 407.314 153.392C408.21 154.928 409.362 155.696 410.77 155.696H413.17C414.45 155.696 415.474 156.144 416.242 157.04C417.074 157.936 417.49 159.088 417.49 160.496C417.49 161.904 416.882 163.056 415.666 163.952C414.45 164.848 412.882 165.296 410.962 165.296H410.77C408.018 165.296 405.522 164.56 403.282 163.088C401.106 161.552 399.41 159.44 398.194 156.752C396.978 154 396.37 150.928 396.37 147.536V95.12Z" stroke="white" stroke-width="4" mask="url(#path-12-outside-1_77_6194)"/>
<path d="M425.151 95.12C425.151 93.712 425.599 92.56 426.495 91.664C427.391 90.768 428.543 90.32 429.951 90.32C431.359 90.32 432.511 90.768 433.407 91.664C434.303 92.56 434.751 93.712 434.751 95.12V147.536C434.751 149.904 435.199 151.856 436.095 153.392C436.991 154.928 438.143 155.696 439.551 155.696H441.951C443.231 155.696 444.255 156.144 445.023 157.04C445.855 157.936 446.271 159.088 446.271 160.496C446.271 161.904 445.663 163.056 444.447 163.952C443.231 164.848 441.663 165.296 439.743 165.296H439.551C436.799 165.296 434.303 164.56 432.063 163.088C429.887 161.552 428.191 159.44 426.975 156.752C425.759 154 425.151 150.928 425.151 147.536V95.12Z" stroke="white" stroke-width="4" mask="url(#path-12-outside-1_77_6194)"/>
<path d="M476.754 112.4C481.81 112.4 486.322 113.552 490.29 115.856C494.322 118.096 497.458 121.232 499.698 125.264C502.002 129.296 503.154 133.904 503.154 139.088C503.154 144.208 502.034 148.784 499.794 152.816C497.554 156.848 494.418 160.016 490.386 162.32C486.418 164.56 481.874 165.68 476.754 165.68C471.634 165.68 467.058 164.56 463.026 162.32C458.994 160.016 455.858 156.848 453.618 152.816C451.378 148.784 450.258 144.208 450.258 139.088C450.258 133.904 451.378 129.296 453.618 125.264C455.858 121.232 458.994 118.096 463.026 115.856C467.058 113.552 471.634 112.4 476.754 112.4ZM476.754 121.04C473.49 121.04 470.546 121.808 467.922 123.344C465.362 124.88 463.346 127.024 461.874 129.776C460.402 132.528 459.666 135.632 459.666 139.088C459.666 142.544 460.402 145.648 461.874 148.4C463.346 151.088 465.362 153.2 467.922 154.736C470.546 156.272 473.49 157.04 476.754 157.04C480.018 157.04 482.93 156.272 485.49 154.736C488.114 153.2 490.13 151.088 491.538 148.4C493.01 145.648 493.746 142.544 493.746 139.088C493.746 135.632 493.01 132.528 491.538 129.776C490.13 127.024 488.114 124.88 485.49 123.344C482.93 121.808 480.018 121.04 476.754 121.04Z" stroke="white" stroke-width="4" mask="url(#path-12-outside-1_77_6194)"/>
<path d="M589.341 95.312C589.341 93.84 589.821 92.656 590.781 91.76C591.741 90.8 592.924 90.32 594.332 90.32C595.74 90.32 596.893 90.8 597.789 91.76C598.749 92.656 599.229 93.84 599.229 95.312V160.304C599.229 161.776 598.749 162.992 597.789 163.952C596.893 164.848 595.74 165.296 594.332 165.296C592.924 165.296 591.741 164.816 590.781 163.856C589.821 162.896 589.341 161.712 589.341 160.304V131.696H544.797V160.304C544.797 161.712 544.316 162.896 543.357 163.856C542.461 164.816 541.276 165.296 539.805 165.296C538.397 165.296 537.212 164.816 536.253 163.856C535.293 162.896 534.812 161.712 534.812 160.304V95.312C534.812 93.84 535.293 92.656 536.253 91.76C537.212 90.8 538.397 90.32 539.805 90.32C541.276 90.32 542.461 90.8 543.357 91.76C544.316 92.656 544.797 93.84 544.797 95.312V122.864H589.341V95.312Z" stroke="white" stroke-width="4" mask="url(#path-12-outside-1_77_6194)"/>
<path d="M641.285 112.4C646.341 112.4 650.854 113.552 654.822 115.856C658.854 118.096 661.99 121.232 664.229 125.264C666.534 129.296 667.686 133.904 667.686 139.088C667.686 144.208 666.565 148.784 664.326 152.816C662.086 156.848 658.95 160.016 654.918 162.32C650.95 164.56 646.405 165.68 641.285 165.68C636.165 165.68 631.59 164.56 627.557 162.32C623.525 160.016 620.389 156.848 618.15 152.816C615.91 148.784 614.789 144.208 614.789 139.088C614.789 133.904 615.91 129.296 618.15 125.264C620.389 121.232 623.525 118.096 627.557 115.856C631.59 113.552 636.165 112.4 641.285 112.4ZM641.285 121.04C638.021 121.04 635.077 121.808 632.453 123.344C629.893 124.88 627.878 127.024 626.405 129.776C624.933 132.528 624.198 135.632 624.198 139.088C624.198 142.544 624.933 145.648 626.405 148.4C627.878 151.088 629.893 153.2 632.453 154.736C635.077 156.272 638.021 157.04 641.285 157.04C644.549 157.04 647.462 156.272 650.022 154.736C652.646 153.2 654.661 151.088 656.069 148.4C657.542 145.648 658.277 142.544 658.277 139.088C658.277 135.632 657.542 132.528 656.069 129.776C654.661 127.024 652.646 124.88 650.022 123.344C647.462 121.808 644.549 121.04 641.285 121.04Z" stroke="white" stroke-width="4" mask="url(#path-12-outside-1_77_6194)"/>
<path d="M700.691 112.4C704.851 112.4 708.563 113.072 711.827 114.416C715.155 115.76 717.779 117.616 719.699 119.984C720.531 121.008 720.947 122.032 720.947 123.056C720.947 124.144 720.403 125.136 719.315 126.032C718.611 126.544 717.715 126.8 716.627 126.8C714.963 126.8 713.459 126.192 712.115 124.976C710.515 123.504 708.819 122.48 707.027 121.904C705.235 121.264 703.059 120.944 700.499 120.944C697.555 120.944 695.123 121.456 693.203 122.48C691.347 123.44 690.419 124.816 690.419 126.608C690.419 127.888 690.739 128.976 691.379 129.872C692.019 130.704 693.235 131.504 695.027 132.272C696.819 132.976 699.411 133.68 702.803 134.384C709.779 135.792 714.707 137.744 717.587 140.24C720.531 142.736 722.003 145.968 722.003 149.936C722.003 152.88 721.203 155.568 719.603 158C718.003 160.368 715.635 162.256 712.499 163.664C709.427 165.008 705.715 165.68 701.363 165.68C697.011 165.68 692.915 165.008 689.075 163.664C685.235 162.32 682.227 160.56 680.051 158.384C679.219 157.552 678.803 156.56 678.803 155.408C678.803 153.872 679.443 152.624 680.723 151.664C681.939 150.768 683.059 150.32 684.083 150.32C685.363 150.32 686.579 150.896 687.731 152.048C688.947 153.392 690.771 154.576 693.203 155.6C695.635 156.56 698.227 157.04 700.979 157.04C704.627 157.04 707.443 156.432 709.427 155.216C711.475 154 712.499 152.368 712.499 150.32C712.499 148.336 711.507 146.704 709.523 145.424C707.539 144.08 704.179 142.96 699.443 142.064C687.155 139.696 681.011 134.64 681.011 126.896C681.011 123.76 681.939 121.104 683.795 118.928C685.651 116.752 688.083 115.12 691.091 114.032C694.099 112.944 697.299 112.4 700.691 112.4Z" stroke="white" stroke-width="4" mask="url(#path-12-outside-1_77_6194)"/>
<path d="M756.752 155.696C757.904 155.696 758.864 156.144 759.632 157.04C760.464 157.936 760.88 159.088 760.88 160.496C760.88 161.904 760.336 163.056 759.248 163.952C758.224 164.848 756.88 165.296 755.216 165.296H753.488C750.352 165.296 747.472 164.496 744.848 162.896C742.288 161.232 740.272 158.992 738.8 156.176C737.328 153.36 736.592 150.192 736.592 146.672V122.96H732.176C730.832 122.96 729.744 122.576 728.912 121.808C728.08 121.04 727.664 120.08 727.664 118.928C727.664 117.648 728.08 116.624 728.912 115.856C729.744 115.088 730.832 114.704 732.176 114.704H736.592V100.88C736.592 99.472 737.04 98.32 737.936 97.424C738.832 96.528 739.984 96.08 741.392 96.08C742.8 96.08 743.952 96.528 744.848 97.424C745.744 98.32 746.192 99.472 746.192 100.88V114.704H754.352C755.696 114.704 756.784 115.088 757.616 115.856C758.448 116.624 758.864 117.648 758.864 118.928C758.864 120.08 758.448 121.04 757.616 121.808C756.784 122.576 755.696 122.96 754.352 122.96H746.192V146.672C746.192 149.232 746.896 151.376 748.304 153.104C749.712 154.832 751.44 155.696 753.488 155.696H756.752Z" stroke="white" stroke-width="4" mask="url(#path-12-outside-1_77_6194)"/>
<defs>
<filter id="filter0_i_77_6194" x="254" y="88.32" width="514.88" height="85.36" filterUnits="userSpaceOnUse" color-interpolation-filters="sRGB">
<feFlood flood-opacity="0" result="BackgroundImageFix"/>
<feBlend mode="normal" in="SourceGraphic" in2="BackgroundImageFix" result="shape"/>
<feColorMatrix in="SourceAlpha" type="matrix" values="0 0 0 0 0 0 0 0 0 0 0 0 0 0 0 0 0 0 127 0" result="hardAlpha"/>
<feOffset dx="6" dy="6"/>
<feGaussianBlur stdDeviation="3"/>
<feComposite in2="hardAlpha" operator="arithmetic" k2="-1" k3="1"/>
<feColorMatrix type="matrix" values="0 0 0 0 0 0 0 0 0 0 0 0 0 0 0 0 0 0 0.12 0"/>
<feBlend mode="normal" in2="shape" result="effect1_innerShadow_77_6194"/>
</filter>
</defs>
</svg>
